<svg width="16" height="16" viewBox="0 0 16 16" fill="none" xmlns="http://www.w3.org/2000/svg">
<path d="M15.75 7.25C15.75 8.625 15.3438 9.71875 14.5312 10.5312C13.6562 11.4062 12.5 11.8438 11 11.8438C10.4375 11.8438 10.0312 11.7812 9.78125 11.625C9.40625 11.4375 9.21875 11.125 9.15625 10.6562C8.84375 11.0625 8.46875 11.375 8.03125 11.625C7.5625 11.875 7.09375 12 6.65625 12C5.71875 12 5 11.7188 4.5 11.125C4 10.5625 3.75 9.78125 3.75 8.8125C3.75 7.90625 3.9375 7.09375 4.3125 6.34375C4.6875 5.625 5.21875 5.0625 5.875 4.65625C6.5 4.25 7.21875 4.03125 7.96875 4.03125C8.40625 4.03125 8.8125 4.125 9.1875 4.28125C9.53125 4.46875 9.8125 4.6875 10 5L10.0625 4.5625C10.0625 4.46875 10.125 4.40625 10.1875 4.34375C10.25 4.28125 10.3438 4.25 10.4375 4.25H11.6562C11.7812 4.25 11.875 4.3125 11.9375 4.40625C12 4.5 12.0312 4.59375 12.0312 4.6875L11.1562 9.34375C11.0625 9.6875 11.0625 9.9375 11.125 10.0938C11.1875 10.25 11.3438 10.3125 11.6562 10.3125C12.3438 10.3125 12.9375 10.0625 13.4375 9.53125C13.9688 8.96875 14.25 8.1875 14.25 7.25C14.25 6.125 13.9375 5.15625 13.375 4.28125C12.8438 3.46875 12.0938 2.84375 11.1562 2.40625C10.1875 1.96875 9.125 1.75 8 1.75C6.875 1.75 5.8125 2.03125 4.875 2.59375C3.90625 3.15625 3.15625 3.9375 2.59375 4.875C2.03125 5.84375 1.75 6.875 1.75 8C1.75 9.125 2.03125 10.1875 2.59375 11.125C3.15625 12.0938 3.90625 12.8438 4.875 13.4062C5.8125 13.9688 6.875 14.25 8 14.25C9.34375 14.25 10.5625 13.875 11.6875 13.0625C11.75 13 11.8125 13 11.9375 13C12.0312 13 12.125 13.0625 12.1875 13.125L12.6562 13.6875C12.7188 13.7812 12.7188 13.875 12.7188 14C12.7188 14.125 12.6562 14.1875 12.5938 14.25C11.9062 14.75 11.1875 15.125 10.4062 15.375C9.625 15.625 8.8125 15.75 8 15.75C6.59375 15.75 5.3125 15.4062 4.125 14.7188C2.9375 14.0312 1.96875 13.0625 1.28125 11.875C0.59375 10.6875 0.25 9.40625 0.25 8C0.25 6.625 0.59375 5.3125 1.28125 4.125C1.96875 2.9375 2.9375 2 4.125 1.3125C5.3125 0.625 6.59375 0.25 8.03125 0.25C9.4375 0.25 10.7188 0.5625 11.9062 1.125C13.0938 1.71875 14 2.53125 14.6875 3.53125C15.375 4.625 15.75 5.875 15.75 7.25ZM7.1875 10.2812C7.8125 10.2812 8.34375 10 8.8125 9.40625C9.28125 8.8125 9.53125 8.125 9.53125 7.34375C9.53125 6.875 9.40625 6.5 9.15625 6.1875C8.90625 5.90625 8.53125 5.75 8.09375 5.75C7.71875 5.75 7.34375 5.875 7 6.125C6.625 6.375 6.34375 6.6875 6.125 7.125C5.875 7.59375 5.78125 8.09375 5.78125 8.65625C5.78125 9.1875 5.90625 9.59375 6.15625 9.875C6.40625 10.1562 6.75 10.2812 7.1875 10.2812Z" fill="white"/>
</svg>
