<svg width="48" height="48" viewBox="0 0 48 48" fill="none" xmlns="http://www.w3.org/2000/svg">
<path d="M24 9.75C26.5312 9.75 28.875 10.4062 31.125 11.7188C33.2812 13.0312 34.9688 14.7188 36.2812 16.875C37.5938 19.125 38.25 21.4688 38.25 24C38.25 26.625 37.5938 28.9688 36.2812 31.125C34.9688 33.375 33.2812 35.0625 31.125 36.375C28.875 37.6875 26.5312 38.25 24 38.25C21.375 38.25 19.0312 37.6875 16.875 36.375C14.625 35.0625 12.9375 33.375 11.625 31.125C10.3125 28.9688 9.75 26.625 9.75 24C9.75 21.4688 10.3125 19.125 11.625 16.875C12.9375 14.7188 14.625 13.0312 16.875 11.7188C19.0312 10.4062 21.375 9.75 24 9.75ZM24 33.75C25.6875 33.75 27.375 33.375 28.875 32.4375C30.375 31.5938 31.5 30.375 32.4375 28.875C33.2812 27.375 33.75 25.7812 33.75 24C33.75 22.3125 33.2812 20.625 32.4375 19.125C31.5 17.625 30.375 16.5 28.875 15.5625C27.375 14.7188 25.6875 14.25 24 14.25C22.2188 14.25 20.625 14.7188 19.125 15.5625C17.625 16.5 16.4062 17.625 15.5625 19.125C14.625 20.625 14.25 22.3125 14.25 24C14.25 25.7812 14.625 27.375 15.5625 28.875C16.4062 30.375 17.625 31.5938 19.125 32.4375C20.625 33.375 22.2188 33.75 24 33.75ZM24 0.75C28.125 0.75 32.0625 1.875 35.625 3.9375C39.1875 6 42 8.8125 44.0625 12.375C46.125 15.9375 47.25 19.875 47.25 24C47.25 28.2188 46.125 32.0625 44.0625 35.625C42 39.1875 39.1875 42.0938 35.625 44.1562C32.0625 46.2188 28.125 47.25 24 47.25C19.7812 47.25 15.9375 46.2188 12.375 44.1562C8.8125 42.0938 5.90625 39.1875 3.84375 35.625C1.78125 32.0625 0.75 28.2188 0.75 24C0.75 19.875 1.78125 15.9375 3.84375 12.375C5.90625 8.8125 8.8125 6 12.375 3.9375C15.9375 1.875 19.7812 0.75 24 0.75ZM24 42.75C27.375 42.75 30.4688 41.9062 33.375 40.2188C36.1875 38.5312 38.5312 36.2812 40.2188 33.375C41.9062 30.5625 42.75 27.375 42.75 24C42.75 20.625 41.9062 17.5312 40.2188 14.625C38.5312 11.8125 36.1875 9.46875 33.375 7.78125C30.4688 6.09375 27.375 5.25 24 5.25C20.625 5.25 17.4375 6.09375 14.625 7.78125C11.7188 9.46875 9.46875 11.8125 7.78125 14.625C6.09375 17.5312 5.25 20.625 5.25 24C5.25 27.375 6.09375 30.5625 7.78125 33.375C9.46875 36.2812 11.7188 38.5312 14.625 40.2188C17.4375 41.9062 20.625 42.75 24 42.75ZM24 18.75C25.4062 18.75 26.625 19.3125 27.6562 20.3438C28.6875 21.375 29.25 22.5938 29.25 24C29.25 25.5 28.6875 26.7188 27.6562 27.75C26.625 28.7812 25.4062 29.25 24 29.25C22.5 29.25 21.2812 28.7812 20.25 27.75C19.2188 26.7188 18.75 25.5 18.75 24C18.75 22.5938 19.2188 21.375 20.25 20.3438C21.2812 19.3125 22.5 18.75 24 18.75Z" fill="#FE6610"/>
</svg>
