<svg width="16" height="16" viewBox="0 0 16 16" fill="none" xmlns="http://www.w3.org/2000/svg">
<path d="M7.88965 0.25C9.26465 0.25 10.5771 0.625 11.7646 1.3125C12.9521 2 13.8896 2.9375 14.5771 4.125C15.2646 5.3125 15.6396 6.625 15.6396 8C15.6396 9.40625 15.2646 10.6875 14.5771 11.875C13.8896 13.0625 12.9521 14.0312 11.7646 14.7188C10.5771 15.4062 9.26465 15.75 7.88965 15.75C6.4834 15.75 5.20215 15.4062 4.01465 14.7188C2.82715 14.0312 1.8584 13.0625 1.1709 11.875C0.483398 10.6875 0.139648 9.40625 0.139648 8C0.139648 6.625 0.483398 5.3125 1.1709 4.125C1.8584 2.9375 2.82715 2 4.01465 1.3125C5.20215 0.625 6.4834 0.25 7.88965 0.25ZM7.88965 14.75C9.1084 14.75 10.2334 14.4688 11.2646 13.8438C12.2959 13.25 13.1084 12.4375 13.7334 11.375C14.3271 10.3438 14.6396 9.21875 14.6396 8C14.6396 6.78125 14.3271 5.65625 13.7334 4.625C13.1084 3.59375 12.2959 2.78125 11.2646 2.15625C10.2021 1.5625 9.07715 1.25 7.8584 1.25C6.63965 1.25 5.51465 1.5625 4.4834 2.15625C3.45215 2.78125 2.63965 3.59375 2.0459 4.625C1.4209 5.6875 1.13965 6.8125 1.13965 8.03125C1.13965 9.25 1.4209 10.375 2.0459 11.4062C2.63965 12.4375 3.45215 13.25 4.51465 13.8438C5.5459 14.4688 6.6709 14.75 7.88965 14.75ZM12.3271 6.15625C12.3896 6.09375 12.4209 6.03125 12.4209 5.90625C12.4209 5.8125 12.3896 5.71875 12.3271 5.625L12.0459 5.375C11.9834 5.3125 11.8896 5.25 11.7959 5.25C11.6709 5.25 11.5771 5.28125 11.5146 5.34375L6.4209 10.4375L4.26465 8.25C4.1709 8.1875 4.07715 8.15625 3.9834 8.15625C3.8584 8.15625 3.7959 8.1875 3.7334 8.25L3.45215 8.5C3.38965 8.59375 3.3584 8.6875 3.3584 8.78125C3.3584 8.90625 3.38965 8.96875 3.45215 9.03125L6.13965 11.75C6.20215 11.8438 6.2959 11.875 6.4209 11.875C6.51465 11.875 6.6084 11.8438 6.6709 11.75L12.3271 6.15625Z" fill="#808080"/>
</svg>
