<svg width="18" height="16" viewBox="0 0 18 16" fill="none" xmlns="http://www.w3.org/2000/svg">
<path d="M9.05134 0.25C10.4994 0.25 11.8816 0.625 13.1322 1.3125C14.3828 2 15.3701 2.9375 16.0941 4.125C16.8181 5.3125 17.213 6.625 17.213 8C17.213 9.40625 16.8181 10.6875 16.0941 11.875C15.3701 13.0625 14.3828 14.0312 13.1322 14.7188C11.8816 15.4062 10.4994 15.75 9.05134 15.75C7.57038 15.75 6.22107 15.4062 4.97049 14.7188C3.71991 14.0312 2.6997 13.0625 1.97568 11.875C1.25166 10.6875 0.889648 9.40625 0.889648 8C0.889648 6.625 1.25166 5.3125 1.97568 4.125C2.6997 2.9375 3.71991 2 4.97049 1.3125C6.22107 0.625 7.57038 0.25 9.05134 0.25ZM16.1599 8C16.1599 6.78125 15.8308 5.65625 15.2055 4.625C14.5473 3.59375 13.6916 2.78125 12.6056 2.15625C11.4867 1.5625 10.3019 1.25 9.01842 1.25C7.73493 1.25 6.55017 1.5625 5.46414 2.15625C4.37811 2.78125 3.52245 3.59375 2.89716 4.625C2.23896 5.6875 1.94277 6.8125 1.94277 8.03125C1.94277 9.25 2.23896 10.375 2.89716 11.4062C3.52245 12.4375 4.37811 13.25 5.49705 13.8438C6.58308 14.4688 7.76784 14.75 9.05134 14.75C10.3348 14.75 11.5196 14.4688 12.6056 13.8438C13.6916 13.25 14.5473 12.4375 15.2055 11.375C15.8308 10.3438 16.1599 9.21875 16.1599 8ZM11.2563 10.75C11.3221 10.8125 11.4209 10.8438 11.5525 10.8438C11.6512 10.8438 11.75 10.7812 11.8158 10.6875L12.0791 10.3125C12.1449 10.25 12.1449 10.1562 12.1449 10.0625C12.1449 9.96875 12.0791 9.875 12.0132 9.8125L9.67663 8.1875V3.625C9.67663 3.53125 9.61081 3.4375 9.54499 3.375C9.47917 3.3125 9.38043 3.25 9.2817 3.25H8.82096C8.68932 3.25 8.59059 3.3125 8.52477 3.375C8.45895 3.4375 8.42604 3.53125 8.42604 3.625V8.625C8.42604 8.75 8.45895 8.84375 8.59059 8.90625L11.2563 10.75Z" fill="#808080"/>
</svg>
