<svg width="49" height="48" viewBox="0 0 49 48" fill="none" xmlns="http://www.w3.org/2000/svg">
<path d="M34 30C34.75 30 35.5 30.375 36.0625 30.9375C36.625 31.5 37 32.25 37 33C37 33.8438 36.625 34.5938 36.0625 35.1562C35.5 35.7188 34.75 36 34 36C33.1562 36 32.4062 35.7188 31.8438 35.1562C31.2812 34.5938 31 33.8438 31 33C31 32.25 31.2812 31.5 31.8438 30.9375C32.4062 30.375 33.1562 30 34 30ZM31 15C30.1562 15 29.4062 14.7188 28.8438 14.1562C28.2812 13.5938 28 12.8438 28 12C28 11.25 28.2812 10.5 28.8438 9.9375C29.4062 9.375 30.1562 9 31 9C31.75 9 32.5 9.375 33.0625 9.9375C33.625 10.5 34 11.25 34 12C34 12.8438 33.625 13.5938 33.0625 14.1562C32.5 14.7188 31.75 15 31 15ZM19 18C19 18.8438 18.625 19.5938 18.0625 20.1562C17.5 20.7188 16.75 21 16 21C15.1562 21 14.4062 20.7188 13.8438 20.1562C13.2812 19.5938 13 18.8438 13 18C13 17.25 13.2812 16.5 13.8438 15.9375C14.4062 15.375 15.1562 15 16 15C16.75 15 17.5 15.375 18.0625 15.9375C18.625 16.5 19 17.25 19 18ZM19 30C19.75 30 20.5 30.375 21.0625 30.9375C21.625 31.5 22 32.25 22 33C22 33.8438 21.625 34.5938 21.0625 35.1562C20.5 35.7188 19.75 36 19 36C18.1562 36 17.4062 35.7188 16.8438 35.1562C16.2812 34.5938 16 33.8438 16 33C16 32.25 16.2812 31.5 16.8438 30.9375C17.4062 30.375 18.1562 30 19 30ZM28 21C28.75 21 29.5 21.375 30.0625 21.9375C30.625 22.5 31 23.25 31 24C31 24.8438 30.625 25.5938 30.0625 26.1562C29.5 26.7188 28.75 27 28 27C27.1562 27 26.4062 26.7188 25.8438 26.1562C25.2812 25.5938 25 24.8438 25 24C25 23.25 25.2812 22.5 25.8438 21.9375C26.4062 21.375 27.1562 21 28 21ZM48.8125 23.9062C49.1875 26.5312 48.8125 29.0625 47.6875 31.5L44.3125 37.9688C43.0938 40.4062 41.3125 42.1875 38.9688 43.3125L32.5 46.6875C30.625 47.625 28.75 48 26.875 48C26.125 48 25.4688 48 24.9062 47.8125L17.6875 46.6875C15.0625 46.3125 12.8125 45.1875 10.9375 43.2188L5.78125 38.0625C3.8125 36.1875 2.6875 33.9375 2.3125 31.2188L1.1875 24.0938C0.71875 21.4688 1.09375 18.9375 2.3125 16.5L5.6875 10.0312C6.8125 7.6875 8.59375 5.90625 11.0312 4.6875L17.5 1.3125C19.2812 0.46875 21.1562 0 23.125 0C23.7812 0 24.4375 0.09375 25.0938 0.1875L32.3125 1.3125C34.9375 1.6875 37.1875 2.90625 39.0625 4.78125L44.2188 9.9375C46.0938 11.8125 47.3125 14.1562 47.6875 16.7812L48.8125 23.9062ZM43.6562 29.4375C44.4062 27.9375 44.5938 26.25 44.4062 24.5625L43.2812 17.4375C43 15.75 42.25 14.3438 41.0312 13.125L35.875 7.96875C34.6562 6.75 33.25 6 31.5625 5.71875L24.3438 4.59375C23.9688 4.59375 23.5 4.5 23.125 4.5C21.8125 4.5 20.6875 4.78125 19.5625 5.34375L13.0938 8.625C11.5938 9.46875 10.375 10.5938 9.625 12.0938L6.34375 18.5625C5.59375 20.1562 5.3125 21.75 5.59375 23.4375L6.71875 30.5625C6.90625 32.25 7.65625 33.75 8.96875 34.875L14.125 40.0312C15.25 41.3438 16.75 42.0938 18.4375 42.2812L25.6562 43.4062C26.0312 43.5 26.4062 43.5 26.875 43.5C28.0938 43.5 29.3125 43.2188 30.4375 42.6562L36.9062 39.375C38.4062 38.625 39.5312 37.4062 40.375 35.9062L43.6562 29.4375Z" fill="#FE6610"/>
</svg>
