<svg width="49" height="48" viewBox="0 0 49 48" fill="none" xmlns="http://www.w3.org/2000/svg">
<path d="M44.2812 4.21875C46.25 6.28125 47.5625 8.53125 48.125 11.1562C48.6875 13.7812 48.5 16.4062 47.5625 19.2188C46.4375 22.2188 44.5625 25.125 41.8438 27.8438L33.875 35.9062C31.625 38.1562 28.9062 39.75 25.7188 40.7812C23 41.7188 20.0938 42.0938 17.0938 42.0938C14.5625 42.0938 12.4062 41.8125 10.5312 41.1562L4.34375 47.3438C3.875 47.8125 3.3125 48 2.75 48C2.09375 48 1.53125 47.8125 1.15625 47.3438C0.6875 46.9688 0.5 46.4062 0.5 45.75C0.5 45.1875 0.6875 44.625 1.15625 44.1562L7.34375 37.9688C6.6875 36.0938 6.40625 33.9375 6.5 31.3125C6.5 28.3125 6.875 25.5 7.8125 22.7812C8.75 19.5938 10.3438 16.875 12.5938 14.625L20.6562 6.65625C22.8125 4.40625 25.1562 2.71875 27.5938 1.59375C29.8438 0.5625 32.0938 0 34.4375 0C38.1875 0 41.4688 1.40625 44.2812 4.21875ZM14.2812 37.4062C15.2188 37.5 16.1562 37.5 17.0938 37.5C19.25 37.5 21.3125 37.3125 23.375 36.75C26.0938 36 28.4375 34.7812 30.3125 33H18.6875L14.2812 37.4062ZM33.4062 30L39.3125 24H27.6875L21.6875 30H33.4062ZM41.6562 21C43.25 18.5625 44 16.125 43.9062 13.6875C43.8125 11.3438 42.875 9.28125 41.0938 7.40625C39.125 5.53125 36.875 4.5 34.4375 4.5C30.875 4.5 27.3125 6.28125 23.8438 9.84375L15.7812 17.8125C13.625 19.9688 12.2188 22.7812 11.5625 26.1562C11 28.7812 10.8125 31.5 11.1875 34.2188L29.6562 15.75C30.0312 15.375 30.5938 15.0938 31.1562 15.0938C31.7188 15.0938 32.2812 15.375 32.75 15.75C33.125 16.2188 33.4062 16.7812 33.4062 17.3438C33.4062 17.9062 33.125 18.4688 32.75 18.8438L30.6875 21H41.6562Z" fill="#FE6610"/>
</svg>
