<svg width="48" height="48" viewBox="0 0 48 48" fill="none" xmlns="http://www.w3.org/2000/svg">
<path d="M34.6875 15.2812C35.9062 16.4062 36.75 17.7188 37.2188 19.2188C37.5938 20.625 37.5938 22.0312 37.2188 23.4375C36.8438 24.9375 36.1875 26.1562 35.25 27.0938L25.9688 36.6562C25.4062 37.2188 24.75 37.5 24 37.5C23.25 37.5938 22.5938 37.3125 22.0312 36.6562L12.75 27.0938C11.8125 26.1562 11.1562 24.9375 10.7812 23.4375C10.4062 22.0312 10.4062 20.625 10.7812 19.2188C11.1562 17.7188 12 16.4062 13.3125 15.2812C15 13.875 16.875 13.3125 19.125 13.5938C21 13.875 22.6875 14.7188 24 16.0312C25.3125 14.7188 26.9062 13.875 28.875 13.5938C31.0312 13.3125 33 13.875 34.6875 15.2812ZM32.0625 23.9062V24C32.7188 23.3438 33.0938 22.5 33.0938 21.375C33.0938 20.3438 32.625 19.4062 31.7812 18.6562C31.125 18.1875 30.375 18 29.4375 18.0938C28.5 18.1875 27.75 18.5625 27.1875 19.125L24 22.5L20.8125 19.125C20.1562 18.5625 19.4062 18.1875 18.4688 18.0938C17.5312 18 16.7812 18.1875 16.2188 18.75C15.2812 19.5 14.9062 20.3438 14.9062 21.375C14.9062 22.4062 15.1875 23.25 15.9375 23.9062L24 32.25L32.0625 23.9062ZM24 0.75C28.125 0.75 32.0625 1.875 35.625 3.9375C39.1875 6 42 8.8125 44.0625 12.375C46.125 15.9375 47.25 19.875 47.25 24C47.25 28.2188 46.125 32.0625 44.0625 35.625C42 39.1875 39.1875 42.0938 35.625 44.1562C32.0625 46.2188 28.125 47.25 24 47.25C19.7812 47.25 15.9375 46.2188 12.375 44.1562C8.8125 42.0938 5.90625 39.1875 3.84375 35.625C1.78125 32.0625 0.75 28.2188 0.75 24C0.75 19.875 1.78125 15.9375 3.84375 12.375C5.90625 8.8125 8.8125 6 12.375 3.9375C15.9375 1.875 19.7812 0.75 24 0.75ZM24 42.75C27.375 42.75 30.4688 41.9062 33.375 40.2188C36.1875 38.5312 38.5312 36.2812 40.2188 33.375C41.9062 30.5625 42.75 27.375 42.75 24C42.75 20.625 41.9062 17.5312 40.2188 14.625C38.5312 11.8125 36.1875 9.46875 33.375 7.78125C30.4688 6.09375 27.375 5.25 24 5.25C20.625 5.25 17.4375 6.09375 14.625 7.78125C11.7188 9.46875 9.46875 11.8125 7.78125 14.625C6.09375 17.5312 5.25 20.625 5.25 24C5.25 27.375 6.09375 30.5625 7.78125 33.375C9.46875 36.2812 11.7188 38.5312 14.625 40.2188C17.4375 41.9062 20.625 42.75 24 42.75Z" fill="#FE6610"/>
</svg>
