<svg width="30" height="30" viewBox="0 0 30 30" fill="none" xmlns="http://www.w3.org/2000/svg">
<path d="M0.725806 0.967742C0.483871 0.967742 0.302419 1.08871 0.181452 1.20968C0.0604839 1.33065 0 1.5121 0 1.69355V10.4032C0 10.6452 0.0604839 10.8266 0.181452 10.9476C0.302419 11.0685 0.483871 11.129 0.725806 11.129H9.43548C9.61693 11.129 9.79839 11.0685 9.91935 10.9476C10.0403 10.8266 10.1613 10.6452 10.1613 10.4032V9.79839C10.1613 9.61693 10.0403 9.43548 9.91935 9.31452C9.79839 9.19355 9.61693 9.07258 9.43548 9.07258H3.50806C4.59677 6.95565 6.16935 5.2621 8.22581 3.99194C10.2823 2.72177 12.5202 2.05645 15 2.05645C17.2984 2.05645 19.4758 2.66129 21.4718 3.81048C23.4677 5.02016 25.0403 6.59274 26.1895 8.52823C27.3387 10.5242 27.9435 12.7016 27.9435 15C27.9435 17.3589 27.3387 19.5363 26.1895 21.5323C24.9798 23.5282 23.4073 25.1008 21.4718 26.25C19.4758 27.3992 17.2984 27.9435 15 27.9435C13.3065 27.9435 11.7339 27.7016 10.2823 27.0968C8.83064 26.4919 7.5 25.7056 6.35081 24.6169C6.16935 24.496 5.9879 24.4355 5.80645 24.4355C5.625 24.4355 5.44355 24.5565 5.32258 24.6774L4.89919 25.1008C4.77823 25.2218 4.71774 25.4032 4.71774 25.6452C4.71774 25.8871 4.77823 26.0081 4.95968 26.129C6.29032 27.3387 7.80242 28.3064 9.55645 28.9718C11.25 29.6976 13.0645 30 15 30C17.6613 30 20.2016 29.3347 22.5 28.004C24.7984 26.6734 26.6129 24.8589 27.9435 22.5605C29.2742 20.2621 30 17.7823 30 15.0605C30 12.3387 29.3347 9.79839 28.004 7.5C26.6734 5.20161 24.8589 3.3871 22.5605 2.05645C20.2621 0.725806 17.7218 0 15 0C12.2782 0 9.79839 0.665323 7.5 1.99597C5.20161 3.32661 3.3871 5.14113 2.05645 7.43952V1.69355C2.05645 1.5121 1.93548 1.33065 1.81452 1.20968C1.69355 1.08871 1.5121 0.967742 1.33065 0.967742H0.725806ZM20.2016 20.0202C20.0806 20.2016 19.8992 20.3226 19.7177 20.3226C19.4758 20.3831 19.2944 20.3226 19.1734 20.2016L14.0323 16.4516V6.53226C14.0323 6.35081 14.0927 6.16935 14.2137 6.04839C14.3347 5.92742 14.5161 5.80645 14.7581 5.80645H15.2419C15.4234 5.80645 15.6048 5.92742 15.7258 6.04839C15.8468 6.16935 15.9677 6.35081 15.9677 6.53226V15.4839L20.3226 18.629C20.4435 18.75 20.5645 18.9315 20.5645 19.1129C20.5645 19.3548 20.5645 19.5363 20.4435 19.6573L20.2016 20.0202Z" fill="#808080"/>
</svg>
