<svg width="12" height="17" viewBox="0 0 12 17" fill="none" xmlns="http://www.w3.org/2000/svg">
<path d="M6 0C7.0625 0 8.0625 0.28125 9 0.8125C9.90625 1.375 10.625 2.09375 11.1875 3C11.7188 3.9375 12 4.9375 12 6C12 6.625 11.9062 7.15625 11.7812 7.625C11.625 8.125 11.3438 8.71875 10.9375 9.4375C10.625 9.9375 10.0312 10.9375 9.125 12.375L7.28125 15.2812C7.09375 15.5938 6.8125 15.8125 6.5 15.9375C6.15625 16.0625 5.8125 16.0625 5.5 15.9375C5.15625 15.8125 4.90625 15.5938 4.71875 15.2812L2.875 12.375C1.9375 10.9375 1.34375 9.96875 1.0625 9.46875C0.625 8.71875 0.34375 8.125 0.21875 7.625C0.0625 7.15625 0 6.625 0 6C0 4.9375 0.25 3.9375 0.8125 3C1.34375 2.09375 2.0625 1.375 3 0.8125C3.90625 0.28125 4.90625 0 6 0ZM6 14.5L7.96875 11.375C8.78125 10.0625 9.34375 9.15625 9.625 8.71875C9.96875 8.09375 10.1875 7.625 10.3125 7.25C10.4375 6.90625 10.5 6.5 10.5 6C10.5 5.1875 10.2812 4.4375 9.875 3.75C9.46875 3.0625 8.9375 2.53125 8.25 2.125C7.5625 1.71875 6.8125 1.5 6 1.5C5.1875 1.5 4.4375 1.71875 3.75 2.125C3.0625 2.53125 2.5 3.0625 2.09375 3.75C1.6875 4.4375 1.5 5.1875 1.5 6C1.5 6.5 1.53125 6.90625 1.65625 7.28125C1.78125 7.65625 2.03125 8.125 2.40625 8.75C2.65625 9.1875 3.1875 10.0938 4.03125 11.4062C4.8125 12.6562 5.46875 13.6875 6 14.5ZM3.5 6C3.5 6.6875 3.71875 7.28125 4.21875 7.78125C4.71875 8.28125 5.3125 8.5 6 8.5C6.6875 8.5 7.25 8.28125 7.75 7.78125C8.25 7.28125 8.5 6.6875 8.5 6C8.5 5.3125 8.25 4.75 7.75 4.25C7.25 3.75 6.6875 3.5 6 3.5C5.3125 3.5 4.71875 3.75 4.21875 4.25C3.71875 4.75 3.5 5.3125 3.5 6Z" fill="white"/>
</svg>
