<svg width="37" height="42" viewBox="0 0 37 42" fill="none" xmlns="http://www.w3.org/2000/svg">
<path d="M9.5 18C6.96875 18 4.8125 17.1562 3.125 15.375C1.34375 13.6875 0.5 11.5312 0.5 9C0.5 6.5625 1.34375 4.40625 3.125 2.625C4.8125 0.9375 6.96875 0 9.5 0C11.9375 0 14.0938 0.9375 15.875 2.625C17.5625 4.40625 18.5 6.5625 18.5 9C18.5 11.5312 17.5625 13.6875 15.875 15.375C14.0938 17.1562 11.9375 18 9.5 18ZM9.5 4.5C8.1875 4.5 7.15625 4.96875 6.3125 5.8125C5.375 6.75 5 7.78125 5 9C5 10.3125 5.375 11.3438 6.3125 12.1875C7.15625 13.125 8.1875 13.5 9.5 13.5C10.7188 13.5 11.75 13.125 12.6875 12.1875C13.5312 11.3438 14 10.3125 14 9C14 7.78125 13.5312 6.75 12.6875 5.8125C11.75 4.96875 10.7188 4.5 9.5 4.5ZM27.5 24C29.9375 24 32.0938 24.9375 33.875 26.625C35.5625 28.4062 36.5 30.5625 36.5 33C36.5 35.5312 35.5625 37.6875 33.875 39.375C32.0938 41.1562 29.9375 42 27.5 42C24.9688 42 22.8125 41.1562 21.125 39.375C19.3438 37.6875 18.5 35.5312 18.5 33C18.5 30.5625 19.3438 28.4062 21.125 26.625C22.8125 24.9375 24.9688 24 27.5 24ZM27.5 37.5C28.7188 37.5 29.75 37.125 30.6875 36.1875C31.5312 35.3438 32 34.3125 32 33C32 31.7812 31.5312 30.75 30.6875 29.8125C29.75 28.9688 28.7188 28.5 27.5 28.5C26.1875 28.5 25.1562 28.9688 24.3125 29.8125C23.375 30.75 23 31.7812 23 33C23 34.3125 23.375 35.3438 24.3125 36.1875C25.1562 37.125 26.1875 37.5 27.5 37.5ZM36.3125 1.78125C36.5 1.40625 36.5 1.03125 36.3125 0.65625C36.125 0.28125 35.75 0 35.375 0H32.0938C31.7188 0 31.3438 0.1875 31.1562 0.46875L0.6875 40.2188C0.40625 40.5938 0.40625 41.0625 0.59375 41.4375C0.78125 41.8125 1.15625 42 1.625 42H5C5.28125 42 5.5625 41.9062 5.84375 41.5312L36.3125 1.78125Z" fill="#FE6610"/>
</svg>
