<svg width="19" height="19" viewBox="0 0 19 19" fill="none" xmlns="http://www.w3.org/2000/svg">
<path d="M1.23047 1.05859H1.26562C0.914062 1.12891 0.597656 1.33984 0.351562 1.62109C0.140625 1.90234 0 2.25391 0 2.64062C0 5.48828 0.738281 8.125 2.14453 10.5156C3.55078 12.9062 5.41406 14.7695 7.73438 16.1055C10.1953 17.5469 12.832 18.25 15.6445 18.25C16.0312 18.25 16.3828 18.1445 16.6641 17.8984C16.9453 17.6875 17.1211 17.3711 17.1914 16.9844L17.9648 13.6797C18.0703 13.3281 18.0352 12.9414 17.8594 12.5898C17.6836 12.2383 17.4023 11.9922 17.0156 11.8516L13.4648 10.3047C13.1484 10.1641 12.7969 10.1641 12.4453 10.2344C12.0938 10.3398 11.8125 10.5156 11.5664 10.7617L10.4414 12.168C8.54297 11.1836 7.10156 9.70703 6.04688 7.80859L7.45312 6.68359C7.73438 6.47266 7.94531 6.15625 8.01562 5.80469C8.08594 5.45312 8.05078 5.13672 7.91016 4.78516L6.39844 1.23438C6.25781 0.882812 6.01172 0.601562 5.66016 0.425781C5.30859 0.25 4.95703 0.214844 4.57031 0.285156L1.23047 1.05859ZM15.5742 16.5625C13.0781 16.5625 10.7578 15.9297 8.57812 14.6641C6.50391 13.4336 4.85156 11.7812 3.58594 9.67188C2.32031 7.52734 1.6875 5.20703 1.6875 2.67578L4.88672 1.9375L6.36328 5.41797L3.97266 7.35156C4.78125 9.10938 5.69531 10.4805 6.75 11.5C7.80469 12.5547 9.17578 13.4688 10.8984 14.2773L12.832 11.8867L16.3125 13.3633L15.5742 16.5625Z" fill="#FE6610"/>
</svg>
