<svg width="48" height="48" viewBox="0 0 48 48" fill="none" xmlns="http://www.w3.org/2000/svg">
<path d="M36 22.5C36 22.2188 35.8125 21.9375 35.625 21.75C35.4375 21.5625 35.1562 21.375 34.875 21.375H26.625V13.125C26.625 12.8438 26.4375 12.5625 26.25 12.375C26.0625 12.1875 25.7812 12 25.5 12H22.5C22.125 12 21.8438 12.1875 21.6562 12.375C21.4688 12.5625 21.375 12.8438 21.375 13.125V21.375H13.125C12.75 21.375 12.4688 21.5625 12.2812 21.75C12.0938 21.9375 12 22.2188 12 22.5V25.5C12 25.875 12.0938 26.1562 12.2812 26.3438C12.4688 26.5312 12.75 26.625 13.125 26.625H21.375V34.875C21.375 35.25 21.4688 35.5312 21.6562 35.7188C21.8438 35.9062 22.125 36 22.5 36H25.5C25.7812 36 26.0625 35.9062 26.25 35.7188C26.4375 35.5312 26.625 35.25 26.625 34.875V26.625H34.875C35.1562 26.625 35.4375 26.5312 35.625 26.3438C35.8125 26.1562 36 25.875 36 25.5V22.5ZM47.25 24C47.25 19.875 46.125 15.9375 44.0625 12.375C42 8.8125 39.1875 6 35.625 3.9375C32.0625 1.875 28.125 0.75 24 0.75C19.7812 0.75 15.9375 1.875 12.375 3.9375C8.8125 6 5.90625 8.8125 3.84375 12.375C1.78125 15.9375 0.75 19.875 0.75 24C0.75 28.2188 1.78125 32.0625 3.84375 35.625C5.90625 39.1875 8.8125 42.0938 12.375 44.1562C15.9375 46.2188 19.7812 47.25 24 47.25C28.125 47.25 32.0625 46.2188 35.625 44.1562C39.1875 42.0938 42 39.1875 44.0625 35.625C46.125 32.0625 47.25 28.2188 47.25 24ZM42.75 24C42.75 27.375 41.9062 30.5625 40.2188 33.375C38.5312 36.2812 36.1875 38.5312 33.375 40.2188C30.4688 41.9062 27.375 42.75 24 42.75C20.625 42.75 17.4375 41.9062 14.625 40.2188C11.7188 38.5312 9.46875 36.2812 7.78125 33.375C6.09375 30.5625 5.25 27.375 5.25 24C5.25 20.625 6.09375 17.5312 7.78125 14.625C9.46875 11.8125 11.7188 9.46875 14.625 7.78125C17.4375 6.09375 20.625 5.25 24 5.25C27.375 5.25 30.4688 6.09375 33.375 7.78125C36.1875 9.46875 38.5312 11.8125 40.2188 14.625C41.9062 17.5312 42.75 20.625 42.75 24Z" fill="#FE6610"/>
</svg>
