<svg width="61" height="48" viewBox="0 0 61 48" fill="none" xmlns="http://www.w3.org/2000/svg">
<path d="M59 34.5C59.375 34.5 59.75 34.6875 60.0312 34.9688C60.3125 35.25 60.5 35.625 60.5 36V37.5C60.5 37.9688 60.3125 38.3438 60.0312 38.625C59.75 38.9062 59.375 39 59 39H54.5C54.5 41.5312 53.5625 43.6875 51.875 45.375C50.0938 47.1562 47.9375 48 45.5 48C42.9688 48 40.8125 47.1562 39.125 45.375C37.3438 43.6875 36.5 41.5312 36.5 39H24.5C24.5 41.5312 23.5625 43.6875 21.875 45.375C20.0938 47.1562 17.9375 48 15.5 48C12.9688 48 10.8125 47.1562 9.125 45.375C7.34375 43.6875 6.5 41.5312 6.5 39V27H11V31.2188C12.4062 30.4688 13.9062 30 15.5 30C17.0938 30 18.5938 30.4688 20 31.2188C21.3125 32.0625 22.4375 33.1875 23.2812 34.5H35V5.25C35 5.0625 34.9062 4.96875 34.7188 4.78125C34.5312 4.59375 34.4375 4.5 34.25 4.5H11.75C11.5625 4.5 11.375 4.59375 11.1875 4.78125C11 4.96875 11 5.0625 11 5.25V9H23.75C23.9375 9 24.0312 9.09375 24.2188 9.28125C24.4062 9.46875 24.5 9.5625 24.5 9.75V11.25C24.5 11.4375 24.4062 11.625 24.2188 11.8125C24.0312 12 23.9375 12 23.75 12H1.25C1.0625 12 0.875 12 0.6875 11.8125C0.5 11.625 0.5 11.4375 0.5 11.25V9.75C0.5 9.5625 0.5 9.46875 0.6875 9.28125C0.875 9.09375 1.0625 9 1.25 9H6.5V5.25C6.5 3.84375 6.96875 2.625 8 1.59375C9.03125 0.5625 10.25 0 11.75 0H34.25C35.6562 0 36.875 0.5625 37.9062 1.59375C38.9375 2.625 39.5 3.84375 39.5 5.25V9H42.875C44.75 9 46.3438 9.65625 47.6562 10.9688L55.5312 18.8438C56.8438 20.1562 57.5 21.75 57.5 23.625V34.5H59ZM15.5 43.5C16.7188 43.5 17.75 43.125 18.6875 42.1875C19.5312 41.3438 20 40.3125 20 39C20 37.7812 19.5312 36.75 18.6875 35.8125C17.75 34.9688 16.7188 34.5 15.5 34.5C14.1875 34.5 13.1562 34.9688 12.3125 35.8125C11.375 36.75 11 37.7812 11 39C11 40.3125 11.375 41.3438 12.3125 42.1875C13.1562 43.125 14.1875 43.5 15.5 43.5ZM39.5 13.5V21H51.3125L44.4688 14.1562C44 13.7812 43.4375 13.5 42.875 13.5H39.5ZM45.5 43.5C46.7188 43.5 47.75 43.125 48.6875 42.1875C49.5312 41.3438 50 40.3125 50 39C50 37.7812 49.5312 36.75 48.6875 35.8125C47.75 34.9688 46.7188 34.5 45.5 34.5C44.1875 34.5 43.1562 34.9688 42.3125 35.8125C41.375 36.75 41 37.7812 41 39C41 40.3125 41.375 41.3438 42.3125 42.1875C43.1562 43.125 44.1875 43.5 45.5 43.5ZM53 34.0312V25.5H39.5V32.3438C41.1875 30.8438 43.25 30 45.5 30C47 30 48.5 30.375 49.8125 31.125C51.125 31.875 52.1562 32.8125 53 34.0312ZM24.5 23.25C24.5 23.4375 24.4062 23.625 24.2188 23.8125C24.0312 24 23.9375 24 23.75 24H1.25C1.0625 24 0.875 24 0.6875 23.8125C0.5 23.625 0.5 23.4375 0.5 23.25V21.75C0.5 21.5625 0.5 21.4688 0.6875 21.2812C0.875 21.0938 1.0625 21 1.25 21H23.75C23.9375 21 24.0312 21.0938 24.2188 21.2812C24.4062 21.4688 24.5 21.5625 24.5 21.75V23.25ZM26.75 18H4.25C4.0625 18 3.875 18 3.6875 17.8125C3.5 17.625 3.5 17.4375 3.5 17.25V15.75C3.5 15.5625 3.5 15.4688 3.6875 15.2812C3.875 15.0938 4.0625 15 4.25 15H26.75C26.9375 15 27.0312 15.0938 27.2188 15.2812C27.4062 15.4688 27.5 15.5625 27.5 15.75V17.25C27.5 17.4375 27.4062 17.625 27.2188 17.8125C27.0312 18 26.9375 18 26.75 18Z" fill="#FE6610"/>
</svg>
