<svg width="36" height="28" viewBox="0 0 36 28" fill="none" xmlns="http://www.w3.org/2000/svg">
<path d="M35.25 10C35.4375 10 35.625 10.125 35.75 10.25C35.875 10.375 36 10.5625 36 10.75V11.25C36 11.5 35.875 11.6875 35.75 11.8125C35.625 11.9375 35.4375 12 35.25 12H34.25L32.375 25.4375C32.25 26.1875 31.875 26.75 31.3125 27.25C30.75 27.75 30.125 28 29.375 28H6.625C5.875 28 5.1875 27.75 4.625 27.25C4.0625 26.75 3.75 26.1875 3.625 25.4375L1.75 12H0.75C0.5 12 0.3125 11.9375 0.1875 11.8125C0.0625 11.6875 0 11.5 0 11.25V10.75C0 10.5625 0.0625 10.375 0.1875 10.25C0.3125 10.125 0.5 10 0.75 10H5.5625L14.25 0.3125C14.4375 0.125 14.6875 0 14.9375 0C15.1875 0 15.4375 0.125 15.6875 0.3125C15.875 0.5 16 0.75 16 1C16 1.25 15.875 1.5 15.75 1.6875L8.25 10H27.75L20.25 1.6875C20.0625 1.5 20 1.25 20 1C20 0.75 20.0625 0.5 20.3125 0.3125C20.5 0.125 20.75 0 21 0C21.25 0 21.5 0.125 21.75 0.3125L30.4375 10H35.25ZM30.375 25.125L32.1875 12H3.8125L5.625 25.125C5.625 25.375 5.75 25.625 5.9375 25.75C6.125 25.9375 6.375 26 6.625 26H29.375C29.625 26 29.8125 25.9375 30 25.75C30.1875 25.625 30.3125 25.375 30.375 25.125ZM19 15.5C19 15.25 18.875 15 18.6875 14.8125C18.5 14.625 18.25 14.5 18 14.5C17.6875 14.5 17.4375 14.625 17.25 14.8125C17.0625 15 17 15.25 17 15.5V22.5C17 22.8125 17.0625 23.0625 17.25 23.25C17.4375 23.4375 17.6875 23.5 18 23.5C18.25 23.5 18.5 23.4375 18.6875 23.25C18.875 23.0625 19 22.8125 19 22.5V15.5ZM26 15.5C26 15.25 25.875 15 25.6875 14.8125C25.5 14.625 25.25 14.5 25 14.5C24.6875 14.5 24.4375 14.625 24.25 14.8125C24.0625 15 24 15.25 24 15.5V22.5C24 22.8125 24.0625 23.0625 24.25 23.25C24.4375 23.4375 24.6875 23.5 25 23.5C25.25 23.5 25.5 23.4375 25.6875 23.25C25.875 23.0625 26 22.8125 26 22.5V15.5ZM12 15.5C12 15.25 11.875 15 11.6875 14.8125C11.5 14.625 11.25 14.5 11 14.5C10.6875 14.5 10.4375 14.625 10.25 14.8125C10.0625 15 10 15.25 10 15.5V22.5C10 22.8125 10.0625 23.0625 10.25 23.25C10.4375 23.4375 10.6875 23.5 11 23.5C11.25 23.5 11.5 23.4375 11.6875 23.25C11.875 23.0625 12 22.8125 12 22.5V15.5Z" fill="#C4C4C4"/>
</svg>
