<svg width="30" height="23" viewBox="0 0 30 23" fill="none" xmlns="http://www.w3.org/2000/svg">
<path d="M2.8125 0C1.99219 0 1.34766 0.292969 0.820312 0.820312C0.234375 1.40625 0 2.05078 0 2.8125V19.6875C0 20.5078 0.234375 21.1523 0.820312 21.6797C1.34766 22.2656 1.99219 22.5 2.8125 22.5H10.5469C10.7227 22.5 10.8984 22.4414 11.0156 22.3242C11.1328 22.207 11.25 22.0312 11.25 21.7969V21.3281C11.25 21.1523 11.1328 20.9766 11.0156 20.8594C10.8984 20.7422 10.7227 20.625 10.5469 20.625H2.8125C2.51953 20.625 2.28516 20.5664 2.10938 20.3906C1.93359 20.2148 1.875 19.9805 1.875 19.6875V2.8125C1.875 2.57812 1.93359 2.34375 2.10938 2.16797C2.28516 1.99219 2.51953 1.875 2.8125 1.875H10.5469C10.7227 1.875 10.8984 1.81641 11.0156 1.69922C11.1328 1.58203 11.25 1.40625 11.25 1.17188V0.703125C11.25 0.527344 11.1328 0.351562 11.0156 0.234375C10.8984 0.117188 10.7227 0 10.5469 0H2.8125ZM19.1602 1.11328C19.2773 0.996094 19.4531 0.9375 19.6289 0.9375C19.8047 0.9375 19.9805 0.996094 20.1562 1.11328L29.8242 10.7227C29.9414 10.8984 30 11.0742 30 11.25C30 11.4844 29.9414 11.6016 29.8242 11.7188L20.1562 21.3867C20.0391 21.5039 19.8633 21.5625 19.6875 21.5625C19.4531 21.5625 19.2773 21.5039 19.1602 21.3281L18.75 20.918C18.5742 20.8008 18.5156 20.6836 18.5156 20.4492C18.5156 20.2734 18.5742 20.0977 18.75 19.9219L26.4844 12.2461H10.0781C9.84375 12.2461 9.66797 12.1875 9.55078 12.0703C9.43359 11.9531 9.375 11.7773 9.375 11.543V10.957C9.375 10.7812 9.43359 10.6055 9.55078 10.4883C9.66797 10.3711 9.84375 10.2539 10.0781 10.2539H26.4844L18.75 2.57812C18.5742 2.46094 18.5156 2.28516 18.5156 2.05078C18.5156 1.875 18.5742 1.69922 18.75 1.58203L19.1602 1.11328Z" fill="#808080"/>
</svg>
