<svg width="16" height="16" viewBox="0 0 16 16" fill="none" xmlns="http://www.w3.org/2000/svg">
<path d="M7.88965 0.25C9.26465 0.25 10.5771 0.625 11.7646 1.3125C12.9521 2 13.8896 2.9375 14.5771 4.125C15.2646 5.3125 15.6396 6.625 15.6396 8C15.6396 9.40625 15.2646 10.6875 14.5771 11.875C13.8896 13.0625 12.9521 14.0312 11.7646 14.7188C10.5771 15.4062 9.26465 15.75 7.88965 15.75C6.4834 15.75 5.20215 15.4062 4.01465 14.7188C2.82715 14.0312 1.8584 13.0625 1.1709 11.875C0.483398 10.6875 0.139648 9.40625 0.139648 8C0.139648 6.625 0.483398 5.3125 1.1709 4.125C1.8584 2.9375 2.82715 2 4.01465 1.3125C5.20215 0.625 6.4834 0.25 7.88965 0.25ZM7.88965 14.75C9.1084 14.75 10.2334 14.4688 11.2646 13.8438C12.2959 13.25 13.1084 12.4375 13.7334 11.375C14.3271 10.3438 14.6396 9.21875 14.6396 8C14.6396 6.78125 14.3271 5.65625 13.7334 4.625C13.1084 3.59375 12.2959 2.78125 11.2646 2.15625C10.2021 1.5625 9.07715 1.25 7.8584 1.25C6.63965 1.25 5.51465 1.5625 4.4834 2.15625C3.45215 2.78125 2.63965 3.59375 2.0459 4.625C1.4209 5.6875 1.13965 6.8125 1.13965 8.03125C1.13965 9.25 1.4209 10.375 2.0459 11.4062C2.63965 12.4375 3.45215 13.25 4.51465 13.8438C5.5459 14.4688 6.6709 14.75 7.88965 14.75ZM10.8584 5.84375C10.9209 5.78125 10.9521 5.6875 10.9521 5.5625C10.9521 5.46875 10.9209 5.375 10.8584 5.3125L10.5771 5.03125C10.5146 4.96875 10.4209 4.9375 10.3271 4.9375C10.2021 4.9375 10.1084 4.96875 10.0459 5.03125L7.88965 7.1875L5.7334 5.03125C5.63965 4.96875 5.5459 4.9375 5.45215 4.9375C5.32715 4.9375 5.26465 4.96875 5.20215 5.03125L4.9209 5.3125C4.8584 5.375 4.82715 5.46875 4.82715 5.5625C4.82715 5.6875 4.8584 5.78125 4.9209 5.84375L7.1084 8L4.9209 10.1562C4.8584 10.25 4.82715 10.3438 4.82715 10.4375C4.82715 10.5625 4.8584 10.625 4.9209 10.6875L5.20215 10.9688C5.26465 11.0312 5.32715 11.0625 5.45215 11.0625C5.5459 11.0625 5.63965 11.0312 5.7334 10.9688L7.88965 8.78125L10.0459 10.9688C10.1084 11.0312 10.2021 11.0625 10.3271 11.0625C10.4209 11.0625 10.5146 11.0312 10.5771 10.9688L10.8584 10.6875C10.9209 10.625 10.9521 10.5625 10.9521 10.4375C10.9521 10.3438 10.9209 10.25 10.8584 10.1562L8.70215 8L10.8584 5.84375Z" fill="#808080"/>
</svg>
