<svg width="31" height="32" viewBox="0 0 31 32" fill="none" xmlns="http://www.w3.org/2000/svg">
<path d="M15.5 0.5C18.25 0.5 20.875 1.25 23.25 2.625C25.625 4 27.5 5.875 28.875 8.25C30.25 10.625 31 13.25 31 16C31 18.8125 30.25 21.375 28.875 23.75C27.5 26.125 25.625 28.0625 23.25 29.4375C20.875 30.8125 18.25 31.5 15.5 31.5C12.6875 31.5 10.125 30.8125 7.75 29.4375C5.375 28.0625 3.4375 26.125 2.0625 23.75C0.6875 21.375 0 18.8125 0 16C0 13.25 0.6875 10.625 2.0625 8.25C3.4375 5.875 5.375 4 7.75 2.625C10.125 1.25 12.6875 0.5 15.5 0.5ZM23.5 26.875V26C23.5 24.9375 23.0625 24 22.3125 23.1875C21.5 22.4375 20.5625 22 19.5 22C19.3125 22 19 22.0625 18.5625 22.1875C17.5 22.5625 16.5 22.6875 15.5 22.6875C14.5 22.6875 13.4375 22.5625 12.4375 22.1875C11.9375 22.0625 11.625 22 11.5 22C10.375 22 9.4375 22.4375 8.6875 23.1875C7.875 24 7.5 24.9375 7.5 26V26.875C9.875 28.625 12.5 29.5 15.5 29.5C18.4375 29.5 21.125 28.625 23.5 26.875ZM25.4375 25.125C26.5625 23.9375 27.4375 22.5625 28.0625 20.9375C28.6875 19.375 29 17.75 29 16C29 13.5625 28.375 11.3125 27.1875 9.25C25.9375 7.1875 24.3125 5.5625 22.25 4.3125C20.1875 3.125 17.9375 2.5 15.5 2.5C13 2.5 10.75 3.125 8.6875 4.3125C6.625 5.5625 5 7.1875 3.8125 9.25C2.5625 11.3125 2 13.5625 2 16C2 17.75 2.3125 19.375 2.9375 20.9375C3.5625 22.5625 4.4375 23.9375 5.5625 25.125C5.8125 23.6875 6.4375 22.5 7.5625 21.5C8.6875 20.5 10 20 11.5 20C11.875 20 12.375 20.125 13 20.3125C13.875 20.5625 14.6875 20.6875 15.5 20.6875C16.25 20.6875 17.125 20.5625 18 20.3125C18.625 20.125 19.125 20 19.5 20C21 20 22.25 20.5 23.375 21.5C24.5 22.5 25.1875 23.6875 25.4375 25.125ZM15.5 7.5C17 7.5 18.25 8.0625 19.375 9.125C20.4375 10.25 21 11.5 21 13C21 14.5 20.4375 15.8125 19.375 16.875C18.25 18 17 18.5 15.5 18.5C14 18.5 12.6875 18 11.625 16.875C10.5 15.8125 10 14.5 10 13C10 11.5 10.5 10.25 11.625 9.125C12.6875 8.0625 14 7.5 15.5 7.5ZM15.5 16.5C16.4375 16.5 17.25 16.1875 17.9375 15.5C18.625 14.8125 19 14 19 13C19 12.0625 18.625 11.25 17.9375 10.5625C17.25 9.875 16.4375 9.5 15.5 9.5C14.5 9.5 13.6875 9.875 13 10.5625C12.3125 11.25 12 12.0625 12 13C12 14 12.3125 14.8125 13 15.5C13.6875 16.1875 14.5 16.5 15.5 16.5Z" fill="#C4C4C4"/>
</svg>
