<svg width="49" height="42" viewBox="0 0 49 42" fill="none" xmlns="http://www.w3.org/2000/svg">
<path d="M42.5 7.5C44.1875 7.5 45.5938 8.15625 46.7188 9.28125C47.8438 10.4062 48.5 11.8125 48.5 13.5V36C48.5 37.6875 47.8438 39.1875 46.7188 40.3125C45.5938 41.4375 44.1875 42 42.5 42H9.5C6.96875 42 4.8125 41.1562 3.125 39.375C1.34375 37.6875 0.5 35.5312 0.5 33V9C0.5 6.5625 1.34375 4.40625 3.125 2.625C4.8125 0.9375 6.96875 0 9.5 0H36.5C38.1875 0 39.5938 0.65625 40.7188 1.78125C41.8438 2.90625 42.5 4.3125 42.5 6V7.5ZM44 36V13.5C44 13.125 43.8125 12.75 43.5312 12.4688C43.25 12.1875 42.875 12 42.5 12H11C10.5312 12 10.1562 11.9062 9.875 11.625C9.59375 11.3438 9.5 10.9688 9.5 10.5C9.5 10.125 9.59375 9.75 9.875 9.46875C10.1562 9.1875 10.5312 9 11 9H38V6C38 5.625 37.8125 5.25 37.5312 4.96875C37.25 4.6875 36.875 4.5 36.5 4.5H9.5C8.1875 4.5 7.15625 4.96875 6.3125 5.8125C5.375 6.75 5 7.78125 5 9V33C5 34.3125 5.375 35.3438 6.3125 36.1875C7.15625 37.125 8.1875 37.5 9.5 37.5H42.5C42.875 37.5 43.25 37.4062 43.5312 37.125C43.8125 36.8438 44 36.4688 44 36ZM36.5 21C37.25 21 38 21.375 38.5625 21.9375C39.125 22.5 39.5 23.25 39.5 24C39.5 24.8438 39.125 25.5938 38.5625 26.1562C38 26.7188 37.25 27 36.5 27C35.6562 27 34.9062 26.7188 34.3438 26.1562C33.7812 25.5938 33.5 24.8438 33.5 24C33.5 23.25 33.7812 22.5 34.3438 21.9375C34.9062 21.375 35.6562 21 36.5 21Z" fill="#FE6610"/>
</svg>
