<?xml version="1.0" encoding="utf-8"?><svg xmlns="http://www.w3.org/2000/svg" xmlns:xlink="http://www.w3.org/1999/xlink"><symbol viewBox="0 0 16 16" id="at" xmlns="http://www.w3.org/2000/svg"><path d="M15.75 7.25c0 1.375-.406 2.469-1.219 3.281-.875.875-2.031 1.313-3.531 1.313-.563 0-.969-.063-1.219-.219-.375-.188-.562-.5-.625-.969a3.711 3.711 0 0 1-1.125.969c-.469.25-.937.375-1.375.375C5.72 12 5 11.719 4.5 11.125c-.5-.563-.75-1.344-.75-2.313 0-.906.188-1.718.563-2.468a4.289 4.289 0 0 1 1.562-1.688 3.824 3.824 0 0 1 2.094-.625c.437 0 .843.094 1.218.25.344.188.626.407.813.719l.063-.438c0-.093.062-.156.124-.218a.355.355 0 0 1 .25-.094h1.22c.124 0 .218.063.28.156a.504.504 0 0 1 .094.282l-.875 4.656c-.094.344-.094.594-.031.75.063.156.219.219.531.219.688 0 1.281-.25 1.781-.782.532-.562.813-1.344.813-2.281a5.345 5.345 0 0 0-.875-2.969c-.531-.812-1.281-1.437-2.219-1.875A7.613 7.613 0 0 0 8 1.75a6.01 6.01 0 0 0-3.125.844c-.969.562-1.719 1.344-2.281 2.281-.563.969-.844 2-.844 3.125a6.01 6.01 0 0 0 .844 3.125 6.145 6.145 0 0 0 2.281 2.281c.938.563 2 .844 3.125.844a6.11 6.11 0 0 0 3.688-1.188c.062-.062.124-.062.25-.062.093 0 .187.063.25.125l.468.563c.063.093.063.187.063.312s-.063.188-.125.25A7.656 7.656 0 0 1 8 15.75a7.573 7.573 0 0 1-3.875-1.031 7.758 7.758 0 0 1-2.844-2.844A7.572 7.572 0 0 1 .25 8c0-1.375.344-2.688 1.031-3.875C1.97 2.937 2.938 2 4.125 1.312A7.629 7.629 0 0 1 8.031.25a8.93 8.93 0 0 1 3.875.875 7.222 7.222 0 0 1 2.781 2.406A6.89 6.89 0 0 1 15.75 7.25zm-8.563 3.031c.625 0 1.157-.281 1.625-.875a3.247 3.247 0 0 0 .72-2.062c0-.469-.126-.844-.376-1.157-.25-.28-.625-.437-1.062-.437-.375 0-.75.125-1.094.375a2.49 2.49 0 0 0-.875 1c-.25.469-.344.969-.344 1.531 0 .531.125.938.375 1.219.25.281.594.406 1.032.406z"/></symbol><symbol viewBox="0 0 48 48" id="bullseye" xmlns="http://www.w3.org/2000/svg"><path d="M24 9.75c2.531 0 4.875.656 7.125 1.969 2.156 1.312 3.844 3 5.156 5.156 1.313 2.25 1.969 4.594 1.969 7.125 0 2.625-.656 4.969-1.969 7.125-1.312 2.25-3 3.938-5.156 5.25-2.25 1.313-4.594 1.875-7.125 1.875-2.625 0-4.969-.563-7.125-1.875-2.25-1.313-3.938-3-5.25-5.25-1.313-2.156-1.875-4.5-1.875-7.125 0-2.531.563-4.875 1.875-7.125 1.313-2.156 3-3.844 5.25-5.156 2.156-1.313 4.5-1.969 7.125-1.969zm0 24c1.688 0 3.375-.375 4.875-1.313 1.5-.843 2.625-2.062 3.563-3.562.843-1.5 1.312-3.094 1.312-4.875 0-1.688-.469-3.375-1.313-4.875a10.785 10.785 0 0 0-3.562-3.563c-1.5-.843-3.188-1.312-4.875-1.312-1.781 0-3.375.469-4.875 1.313-1.5.937-2.719 2.062-3.563 3.562-.937 1.5-1.312 3.188-1.312 4.875 0 1.781.375 3.375 1.313 4.875a9.29 9.29 0 0 0 3.562 3.563c1.5.937 3.094 1.312 4.875 1.312zm0-33c4.125 0 8.063 1.125 11.625 3.188C39.188 6 42 8.811 44.063 12.374c2.062 3.563 3.187 7.5 3.187 11.625 0 4.219-1.125 8.063-3.188 11.625-2.062 3.563-4.874 6.469-8.437 8.531-3.563 2.063-7.5 3.094-11.625 3.094-4.219 0-8.063-1.031-11.625-3.094a23.27 23.27 0 0 1-8.531-8.531C1.78 32.062.75 28.219.75 24c0-4.125 1.031-8.063 3.094-11.625C5.906 8.812 8.813 6 12.375 3.937 15.938 1.876 19.781.75 24 .75zm0 42c3.375 0 6.469-.844 9.375-2.531 2.813-1.688 5.156-3.938 6.844-6.844 1.687-2.813 2.531-6 2.531-9.375s-.844-6.469-2.531-9.375a19.925 19.925 0 0 0-6.844-6.844c-2.906-1.687-6-2.531-9.375-2.531s-6.563.844-9.375 2.531c-2.906 1.688-5.156 4.032-6.844 6.844-1.687 2.906-2.531 6-2.531 9.375s.844 6.563 2.531 9.375c1.688 2.906 3.938 5.156 6.844 6.844 2.813 1.687 6 2.531 9.375 2.531zm0-24c1.406 0 2.625.563 3.656 1.594 1.032 1.031 1.594 2.25 1.594 3.656 0 1.5-.563 2.719-1.594 3.75-1.031 1.031-2.25 1.5-3.656 1.5-1.5 0-2.719-.469-3.75-1.5-1.031-1.031-1.5-2.25-1.5-3.75 0-1.406.469-2.625 1.5-3.656 1.031-1.032 2.25-1.594 3.75-1.594z"/></symbol><symbol viewBox="0 0 16 16" id="check-circle" xmlns="http://www.w3.org/2000/svg"><path d="M7.89.25c1.375 0 2.687.375 3.875 1.063a7.59 7.59 0 0 1 2.812 2.812A7.685 7.685 0 0 1 15.64 8c0 1.406-.375 2.688-1.063 3.875-.687 1.188-1.625 2.156-2.812 2.844A7.656 7.656 0 0 1 7.89 15.75a7.573 7.573 0 0 1-3.875-1.031 7.758 7.758 0 0 1-2.844-2.844A7.572 7.572 0 0 1 .14 8c0-1.375.343-2.688 1.03-3.875C1.859 2.937 2.828 2 4.016 1.312 5.202.625 6.483.25 7.89.25zm0 14.5c1.218 0 2.343-.281 3.375-.906 1.03-.594 1.843-1.406 2.468-2.469A6.66 6.66 0 0 0 14.64 8a6.66 6.66 0 0 0-.907-3.375 7.18 7.18 0 0 0-2.468-2.469c-1.063-.594-2.188-.906-3.407-.906a6.66 6.66 0 0 0-3.375.906 6.835 6.835 0 0 0-2.437 2.469C1.42 5.688 1.14 6.813 1.14 8.031c0 1.219.28 2.344.906 3.375a6.383 6.383 0 0 0 2.469 2.438c1.03.625 2.156.906 3.375.906zm4.437-8.594c.063-.062.094-.125.094-.25a.504.504 0 0 0-.094-.281l-.281-.25c-.063-.063-.156-.125-.25-.125-.125 0-.219.031-.281.094L6.42 10.437 4.265 8.25a.504.504 0 0 0-.282-.094c-.125 0-.187.031-.25.094l-.28.25a.504.504 0 0 0-.095.281c0 .125.032.188.094.25L6.14 11.75c.062.094.156.125.28.125a.284.284 0 0 0 .25-.125l5.657-5.594z"/></symbol><symbol viewBox="0 0 16 16" id="clock" xmlns="http://www.w3.org/2000/svg"><path d="M8 .25a7.68 7.68 0 0 1 3.875 1.063 7.59 7.59 0 0 1 2.813 2.812A7.685 7.685 0 0 1 15.75 8c0 1.406-.375 2.688-1.063 3.875-.687 1.188-1.624 2.156-2.812 2.844A7.656 7.656 0 0 1 8 15.75a7.573 7.573 0 0 1-3.875-1.031 7.758 7.758 0 0 1-2.844-2.844A7.572 7.572 0 0 1 .25 8c0-1.375.344-2.688 1.031-3.875C1.97 2.937 2.938 2 4.125 1.312 5.313.625 6.594.25 8 .25zm0 14a6.091 6.091 0 0 0 3.125-.844c.938-.562 1.719-1.312 2.281-2.281.563-.938.844-2 .844-3.125a6.091 6.091 0 0 0-.844-3.125 6.64 6.64 0 0 0-2.281-2.281c-.969-.563-2-.844-3.125-.844a6.01 6.01 0 0 0-3.125.844c-.969.562-1.719 1.344-2.281 2.281-.563.969-.844 2-.844 3.125a6.01 6.01 0 0 0 .844 3.125 6.145 6.145 0 0 0 2.281 2.281c.938.563 2 .844 3.125.844zM9.938 11c.062.063.156.094.28.063.095 0 .188-.063.25-.157l.563-.812c.063-.063.063-.156.063-.281 0-.094-.063-.188-.125-.25l-2.094-1.5V3.625c0-.094-.063-.188-.125-.25-.063-.063-.156-.125-.25-.125h-1a.396.396 0 0 0-.281.125.355.355 0 0 0-.094.25V8.75c0 .125.031.25.156.313L9.938 11z"/></symbol><symbol viewBox="0 0 18 16" id="clock-thin" xmlns="http://www.w3.org/2000/svg"><path d="M9.051.25a8.42 8.42 0 0 1 4.081 1.063 7.804 7.804 0 0 1 2.962 2.812c.724 1.188 1.119 2.5 1.119 3.875 0 1.406-.395 2.688-1.119 3.875a7.884 7.884 0 0 1-2.962 2.844 8.395 8.395 0 0 1-4.08 1.031c-1.482 0-2.83-.344-4.082-1.031a7.977 7.977 0 0 1-2.994-2.844A7.28 7.28 0 0 1 .89 8a7.36 7.36 0 0 1 1.086-3.875C2.7 2.937 3.72 2 4.97 1.312A8.33 8.33 0 0 1 9.051.25zM16.16 8c0-1.219-.33-2.344-.954-3.375a7.383 7.383 0 0 0-2.6-2.469 7.523 7.523 0 0 0-3.588-.906 7.302 7.302 0 0 0-3.554.906c-1.086.625-1.942 1.438-2.567 2.469-.658 1.063-.954 2.188-.954 3.406 0 1.219.296 2.344.954 3.375a6.568 6.568 0 0 0 2.6 2.438c1.086.625 2.27.906 3.554.906 1.284 0 2.469-.281 3.555-.906a6.872 6.872 0 0 0 2.6-2.469A6.404 6.404 0 0 0 16.16 8zm-4.904 2.75c.066.063.165.094.296.094.1 0 .198-.063.264-.156l.263-.376c.066-.062.066-.156.066-.25 0-.093-.066-.187-.132-.25L9.677 8.188V3.625c0-.094-.066-.188-.132-.25-.066-.063-.165-.125-.263-.125H8.82a.427.427 0 0 0-.296.125.345.345 0 0 0-.099.25v5c0 .125.033.219.165.281l2.665 1.844z"/></symbol><symbol viewBox="0 0 49 48" id="cookie" xmlns="http://www.w3.org/2000/svg"><path d="M34 30c.75 0 1.5.375 2.063.938C36.624 31.5 37 32.25 37 33c0 .844-.375 1.594-.938 2.156A2.908 2.908 0 0 1 34 36c-.844 0-1.594-.281-2.156-.844C31.28 34.594 31 33.844 31 33c0-.75.281-1.5.844-2.063C32.406 30.375 33.156 30 34 30zm-3-15c-.844 0-1.594-.281-2.156-.844C28.28 13.594 28 12.844 28 12c0-.75.281-1.5.844-2.063C29.406 9.376 30.156 9 31 9c.75 0 1.5.375 2.063.938C33.624 10.5 34 11.25 34 12c0 .844-.375 1.594-.938 2.156A2.908 2.908 0 0 1 31 15zm-12 3c0 .844-.375 1.594-.938 2.156A2.908 2.908 0 0 1 16 21c-.844 0-1.594-.281-2.156-.844C13.28 19.594 13 18.844 13 18c0-.75.281-1.5.844-2.063C14.406 15.376 15.156 15 16 15c.75 0 1.5.375 2.063.938C18.625 16.5 19 17.25 19 18zm0 12c.75 0 1.5.375 2.063.938C21.625 31.5 22 32.25 22 33c0 .844-.375 1.594-.938 2.156A2.908 2.908 0 0 1 19 36c-.844 0-1.594-.281-2.156-.844C16.28 34.594 16 33.844 16 33c0-.75.281-1.5.844-2.063C17.406 30.375 18.156 30 19 30zm9-9c.75 0 1.5.375 2.063.938C30.625 22.5 31 23.25 31 24c0 .844-.375 1.594-.938 2.156A2.908 2.908 0 0 1 28 27c-.844 0-1.594-.281-2.156-.844C25.28 25.594 25 24.844 25 24c0-.75.281-1.5.844-2.063C26.406 21.375 27.156 21 28 21zm20.813 2.906c.374 2.625 0 5.157-1.126 7.594l-3.374 6.469c-1.22 2.437-3 4.218-5.344 5.343L32.5 46.688C30.625 47.624 28.75 48 26.875 48c-.75 0-1.406 0-1.969-.188l-7.218-1.124c-2.625-.376-4.875-1.5-6.75-3.47L5.78 38.063c-1.968-1.874-3.093-4.124-3.468-6.843l-1.126-7.125c-.468-2.625-.093-5.157 1.125-7.594l3.376-6.469c1.125-2.344 2.906-4.125 5.343-5.344l6.47-3.375C19.281.47 21.156 0 23.125 0c.656 0 1.313.094 1.969.188l7.218 1.125c2.626.375 4.876 1.593 6.75 3.468l5.157 5.157c1.875 1.874 3.093 4.218 3.468 6.843l1.126 7.125zm-5.157 5.532c.75-1.5.938-3.188.75-4.875l-1.125-7.125c-.281-1.688-1.031-3.094-2.25-4.313l-5.156-5.156C34.656 6.75 33.25 6 31.562 5.719l-7.218-1.125c-.375 0-.844-.094-1.219-.094a7.675 7.675 0 0 0-3.563.844l-6.468 3.281c-1.5.844-2.719 1.969-3.469 3.469l-3.281 6.469c-.75 1.593-1.032 3.187-.75 4.875l1.125 7.125c.187 1.687.937 3.187 2.25 4.312l5.156 5.156c1.125 1.313 2.625 2.063 4.313 2.25l7.218 1.125c.375.094.75.094 1.219.094a7.957 7.957 0 0 0 3.563-.844l6.468-3.281c1.5-.75 2.625-1.969 3.469-3.469l3.281-6.468z"/></symbol><symbol viewBox="0 0 49 48" id="feather" xmlns="http://www.w3.org/2000/svg"><path d="M44.281 4.219c1.969 2.062 3.282 4.312 3.844 6.937.563 2.625.375 5.25-.563 8.063-1.124 3-3 5.906-5.718 8.625l-7.969 8.062c-2.25 2.25-4.969 3.844-8.156 4.875-2.719.938-5.625 1.313-8.625 1.313-2.532 0-4.688-.282-6.563-.938l-6.187 6.188A2.196 2.196 0 0 1 2.75 48c-.656 0-1.219-.188-1.594-.656C.688 46.969.5 46.406.5 45.75c0-.563.188-1.125.656-1.594l6.188-6.187c-.657-1.875-.938-4.032-.844-6.657 0-3 .375-5.812 1.313-8.53.937-3.188 2.53-5.907 4.78-8.157l8.063-7.969c2.157-2.25 4.5-3.937 6.938-5.062C29.844.562 32.094 0 34.437 0c3.75 0 7.032 1.406 9.844 4.219zm-30 33.187c.938.094 1.875.094 2.813.094 2.156 0 4.218-.188 6.281-.75 2.719-.75 5.063-1.969 6.938-3.75H18.688l-4.407 4.406zM33.406 30l5.907-6H27.687l-6 6h11.72zm8.25-9c1.594-2.438 2.344-4.875 2.25-7.313-.093-2.343-1.031-4.406-2.812-6.28C39.125 5.53 36.875 4.5 34.437 4.5c-3.562 0-7.124 1.781-10.593 5.344l-8.063 7.969c-2.156 2.156-3.562 4.968-4.219 8.343-.562 2.625-.75 5.344-.374 8.063L29.655 15.75c.375-.375.938-.656 1.5-.656.563 0 1.125.281 1.594.656.375.469.656 1.031.656 1.594 0 .562-.281 1.125-.656 1.5L30.687 21h10.97z"/></symbol><symbol viewBox="0 0 48 48" id="heart-circle" xmlns="http://www.w3.org/2000/svg"><path d="M34.688 15.281c1.218 1.125 2.062 2.438 2.53 3.938a8.05 8.05 0 0 1 0 4.218c-.374 1.5-1.03 2.72-1.968 3.657l-9.281 9.562c-.563.563-1.219.844-1.969.844-.75.094-1.406-.188-1.969-.844l-9.281-9.562c-.938-.938-1.594-2.157-1.969-3.657a8.05 8.05 0 0 1 0-4.218c.375-1.5 1.219-2.813 2.531-3.938 1.688-1.406 3.563-1.969 5.813-1.687A8.655 8.655 0 0 1 24 16.03c1.313-1.312 2.906-2.156 4.875-2.437 2.156-.281 4.125.281 5.813 1.687zm-2.626 8.625V24c.657-.656 1.032-1.5 1.032-2.625 0-1.031-.469-1.969-1.313-2.719-.656-.468-1.406-.656-2.343-.562-.938.093-1.688.468-2.25 1.031L24 22.5l-3.188-3.375c-.656-.563-1.406-.938-2.343-1.031-.938-.094-1.688.093-2.25.656-.938.75-1.313 1.594-1.313 2.625s.281 1.875 1.031 2.531L24 32.25l8.063-8.344zM24 .75c4.125 0 8.063 1.125 11.625 3.188C39.188 6 42 8.811 44.063 12.374c2.062 3.563 3.187 7.5 3.187 11.625 0 4.219-1.125 8.063-3.188 11.625-2.062 3.563-4.874 6.469-8.437 8.531-3.563 2.063-7.5 3.094-11.625 3.094-4.219 0-8.063-1.031-11.625-3.094a23.27 23.27 0 0 1-8.531-8.531C1.78 32.062.75 28.219.75 24c0-4.125 1.031-8.063 3.094-11.625C5.906 8.812 8.813 6 12.375 3.937 15.938 1.876 19.781.75 24 .75zm0 42c3.375 0 6.469-.844 9.375-2.531 2.813-1.688 5.156-3.938 6.844-6.844 1.687-2.813 2.531-6 2.531-9.375s-.844-6.469-2.531-9.375a19.925 19.925 0 0 0-6.844-6.844c-2.906-1.687-6-2.531-9.375-2.531s-6.563.844-9.375 2.531c-2.906 1.688-5.156 4.032-6.844 6.844-1.687 2.906-2.531 6-2.531 9.375s.844 6.563 2.531 9.375c1.688 2.906 3.938 5.156 6.844 6.844 2.813 1.687 6 2.531 9.375 2.531z"/></symbol><symbol viewBox="0 0 30 30" id="history" xmlns="http://www.w3.org/2000/svg"><path d="M.726.968a.767.767 0 0 0-.545.242.687.687 0 0 0-.181.484v8.71c0 .241.06.423.181.544.121.12.303.181.545.181h8.71c.18 0 .362-.06.483-.181a.767.767 0 0 0 .242-.545v-.605c0-.181-.12-.363-.242-.483-.12-.121-.302-.242-.484-.242H3.508c1.089-2.117 2.661-3.81 4.718-5.081C10.282 2.722 12.52 2.056 15 2.056c2.298 0 4.476.605 6.472 1.754 1.996 1.21 3.568 2.783 4.717 4.718 1.15 1.996 1.755 4.174 1.755 6.472a12.89 12.89 0 0 1-1.755 6.532c-1.21 1.996-2.782 3.569-4.717 4.718-1.996 1.15-4.174 1.694-6.472 1.694-1.694 0-3.266-.242-4.718-.847-1.451-.605-2.782-1.391-3.931-2.48a.976.976 0 0 0-.545-.181c-.181 0-.362.12-.483.241l-.424.424c-.12.12-.181.302-.181.544 0 .242.06.363.242.484a14.33 14.33 0 0 0 4.596 2.843C11.25 29.698 13.065 30 15 30c2.661 0 5.202-.665 7.5-1.996a14.69 14.69 0 0 0 5.444-5.444c1.33-2.298 2.056-4.778 2.056-7.5 0-2.721-.665-5.262-1.996-7.56a14.69 14.69 0 0 0-5.444-5.444C20.263.726 17.723 0 15 0c-2.722 0-5.202.665-7.5 1.996A14.691 14.691 0 0 0 2.056 7.44V1.694c0-.182-.12-.363-.241-.484S1.512.968 1.33.968H.726zM20.202 20.02c-.121.182-.303.303-.484.303-.242.06-.424 0-.545-.121l-5.14-3.75v-9.92c0-.181.06-.363.18-.484a.767.767 0 0 1 .545-.242h.484c.181 0 .363.121.484.242.12.121.242.303.242.484v8.952l4.355 3.145c.12.121.241.302.241.484 0 .242 0 .423-.12.544l-.242.363z"/></symbol><symbol viewBox="0 0 12 17" id="map-marker-alt" xmlns="http://www.w3.org/2000/svg"><path d="M6 0c1.063 0 2.063.281 3 .813A6.653 6.653 0 0 1 11.188 3c.53.938.812 1.938.812 3 0 .625-.094 1.156-.219 1.625-.156.5-.437 1.094-.844 1.813-.312.5-.906 1.5-1.812 2.937l-1.844 2.906a1.59 1.59 0 0 1-.781.656 1.38 1.38 0 0 1-1 0 1.467 1.467 0 0 1-.781-.656l-1.844-2.906c-.938-1.438-1.531-2.406-1.813-2.906C.625 8.719.345 8.125.22 7.625.062 7.156 0 6.625 0 6c0-1.063.25-2.063.813-3A6.114 6.114 0 0 1 3 .812 5.837 5.837 0 0 1 6 0zm0 14.5l1.969-3.125a252.314 252.314 0 0 1 1.656-2.656c.344-.625.563-1.094.688-1.469.124-.344.187-.75.187-1.25 0-.813-.219-1.563-.625-2.25A4.5 4.5 0 0 0 8.25 2.125a4.358 4.358 0 0 0-4.5 0c-.688.406-1.25.938-1.656 1.625C1.688 4.438 1.5 5.188 1.5 6c0 .5.031.906.156 1.281.125.375.375.844.75 1.469.25.438.781 1.344 1.625 2.656C4.813 12.656 5.47 13.687 6 14.5zM3.5 6c0 .688.219 1.281.719 1.781S5.312 8.5 6 8.5s1.25-.219 1.75-.719S8.5 6.688 8.5 6s-.25-1.25-.75-1.75S6.687 3.5 6 3.5c-.688 0-1.281.25-1.781.75S3.5 5.313 3.5 6z"/></symbol><symbol viewBox="0 0 37 42" id="percent" xmlns="http://www.w3.org/2000/svg"><path d="M9.5 18c-2.531 0-4.688-.844-6.375-2.625C1.344 13.687.5 11.531.5 9c0-2.438.844-4.594 2.625-6.375C4.813.937 6.969 0 9.5 0c2.438 0 4.594.938 6.375 2.625C17.563 4.406 18.5 6.563 18.5 9c0 2.531-.938 4.688-2.625 6.375C14.094 17.156 11.937 18 9.5 18zm0-13.5c-1.313 0-2.344.469-3.188 1.313C5.375 6.75 5 7.78 5 9c0 1.313.375 2.344 1.313 3.188.843.937 1.875 1.312 3.187 1.312 1.219 0 2.25-.375 3.188-1.313C13.53 11.345 14 10.313 14 9c0-1.219-.469-2.25-1.313-3.188C11.75 4.97 10.72 4.5 9.5 4.5zm18 19.5c2.438 0 4.594.938 6.375 2.625C35.563 28.406 36.5 30.563 36.5 33c0 2.531-.938 4.688-2.625 6.375C32.094 41.156 29.937 42 27.5 42c-2.531 0-4.688-.844-6.375-2.625C19.344 37.687 18.5 35.531 18.5 33c0-2.438.844-4.594 2.625-6.375C22.813 24.937 24.969 24 27.5 24zm0 13.5c1.219 0 2.25-.375 3.188-1.313C31.53 35.344 32 34.313 32 33c0-1.219-.469-2.25-1.313-3.188C29.75 28.97 28.72 28.5 27.5 28.5c-1.313 0-2.344.469-3.188 1.313C23.375 30.75 23 31.78 23 33c0 1.313.375 2.344 1.313 3.188.843.937 1.875 1.312 3.187 1.312zm8.813-35.719c.187-.375.187-.75 0-1.125C36.124.281 35.75 0 35.374 0h-3.281c-.375 0-.75.188-.938.469L.688 40.219a1.153 1.153 0 0 0-.094 1.218c.187.376.562.563 1.031.563H5c.281 0 .563-.094.844-.469l30.468-39.75z"/></symbol><symbol viewBox="0 0 19 19" id="phone" xmlns="http://www.w3.org/2000/svg"><path d="M1.23 1.059h.036c-.352.07-.668.28-.914.562A1.695 1.695 0 0 0 0 2.641c0 2.847.738 5.484 2.145 7.875 1.406 2.39 3.27 4.254 5.59 5.59a15.374 15.374 0 0 0 7.91 2.144c.386 0 .738-.105 1.02-.352.28-.21.456-.527.526-.914l.774-3.304a1.48 1.48 0 0 0-.106-1.09 1.463 1.463 0 0 0-.843-.738l-3.551-1.547c-.317-.14-.668-.14-1.02-.07a2.035 2.035 0 0 0-.879.527l-1.125 1.406c-1.898-.984-3.34-2.461-4.394-4.36l1.406-1.124a1.48 1.48 0 0 0 .563-.88c.07-.35.035-.667-.106-1.019l-1.512-3.55a1.508 1.508 0 0 0-.738-.81 1.666 1.666 0 0 0-1.09-.14l-3.34.774zm14.344 15.503c-2.496 0-4.816-.632-6.996-1.898-2.074-1.23-3.726-2.883-4.992-4.992C2.32 7.527 1.688 5.207 1.688 2.676l3.199-.739 1.476 3.481-2.39 1.934C4.78 9.109 5.695 10.48 6.75 11.5c1.055 1.055 2.426 1.969 4.148 2.777l1.934-2.39 3.48 1.476-.738 3.2z"/></symbol><symbol viewBox="0 0 48 48" id="plus-circle" xmlns="http://www.w3.org/2000/svg"><path d="M36 22.5c0-.281-.188-.563-.375-.75-.188-.188-.469-.375-.75-.375h-8.25v-8.25c0-.281-.188-.563-.375-.75-.188-.188-.469-.375-.75-.375h-3c-.375 0-.656.188-.844.375-.187.188-.281.469-.281.75v8.25h-8.25c-.375 0-.656.188-.844.375-.187.188-.281.469-.281.75v3c0 .375.094.656.281.844.188.187.469.281.844.281h8.25v8.25c0 .375.094.656.281.844.188.187.469.281.844.281h3c.281 0 .563-.094.75-.281.188-.188.375-.469.375-.844v-8.25h8.25c.281 0 .563-.094.75-.281.188-.188.375-.469.375-.844v-3zM47.25 24c0-4.125-1.125-8.063-3.188-11.625C42 8.812 39.188 6 35.626 3.937 32.062 1.876 28.125.75 24 .75c-4.219 0-8.063 1.125-11.625 3.188C8.812 6 5.906 8.811 3.844 12.374 1.78 15.938.75 19.875.75 24c0 4.219 1.031 8.063 3.094 11.625a23.27 23.27 0 0 0 8.531 8.531C15.938 46.22 19.781 47.25 24 47.25c4.125 0 8.063-1.031 11.625-3.094 3.563-2.062 6.375-4.968 8.438-8.531C46.124 32.062 47.25 28.219 47.25 24zm-4.5 0c0 3.375-.844 6.563-2.531 9.375-1.688 2.906-4.032 5.156-6.844 6.844-2.906 1.687-6 2.531-9.375 2.531s-6.563-.844-9.375-2.531c-2.906-1.688-5.156-3.938-6.844-6.844-1.687-2.813-2.531-6-2.531-9.375s.844-6.469 2.531-9.375c1.688-2.813 3.938-5.156 6.844-6.844 2.813-1.687 6-2.531 9.375-2.531s6.469.844 9.375 2.531a19.925 19.925 0 0 1 6.844 6.844c1.687 2.906 2.531 6 2.531 9.375z"/></symbol><symbol viewBox="0 0 61 48" id="shipping-fast" xmlns="http://www.w3.org/2000/svg"><path d="M59 34.5c.375 0 .75.188 1.031.469.282.281.469.656.469 1.031v1.5c0 .469-.188.844-.469 1.125-.281.281-.656.375-1.031.375h-4.5c0 2.531-.938 4.688-2.625 6.375C50.094 47.156 47.937 48 45.5 48c-2.531 0-4.688-.844-6.375-2.625C37.344 43.687 36.5 41.531 36.5 39h-12c0 2.531-.938 4.688-2.625 6.375C20.094 47.156 17.937 48 15.5 48c-2.531 0-4.688-.844-6.375-2.625C7.344 43.687 6.5 41.531 6.5 39V27H11v4.219c1.406-.75 2.906-1.219 4.5-1.219 1.594 0 3.094.469 4.5 1.219a10.95 10.95 0 0 1 3.281 3.281H35V5.25c0-.188-.094-.281-.281-.469-.188-.187-.282-.281-.469-.281h-22.5c-.188 0-.375.094-.563.281C11 4.97 11 5.063 11 5.25V9h12.75c.188 0 .281.094.469.281.187.188.281.281.281.469v1.5c0 .188-.094.375-.281.563-.188.187-.282.187-.469.187H1.25c-.188 0-.375 0-.563-.188C.5 11.626.5 11.438.5 11.25v-1.5c0-.188 0-.281.188-.469C.875 9.094 1.063 9 1.25 9H6.5V5.25c0-1.406.469-2.625 1.5-3.656C9.031.562 10.25 0 11.75 0h22.5c1.406 0 2.625.563 3.656 1.594C38.938 2.625 39.5 3.844 39.5 5.25V9h3.375c1.875 0 3.469.656 4.781 1.969l7.875 7.875c1.313 1.312 1.969 2.906 1.969 4.781V34.5H59zm-43.5 9c1.219 0 2.25-.375 3.188-1.313C19.53 41.344 20 40.313 20 39c0-1.219-.469-2.25-1.313-3.188C17.75 34.97 16.72 34.5 15.5 34.5c-1.313 0-2.344.469-3.188 1.313C11.376 36.75 11 37.78 11 39c0 1.313.375 2.344 1.313 3.188.843.937 1.874 1.312 3.187 1.312zm24-30V21h11.813l-6.844-6.844c-.469-.375-1.032-.656-1.594-.656H39.5zm6 30c1.219 0 2.25-.375 3.188-1.313C49.53 41.344 50 40.313 50 39c0-1.219-.469-2.25-1.313-3.188C47.75 34.97 46.72 34.5 45.5 34.5c-1.313 0-2.344.469-3.188 1.313C41.376 36.75 41 37.78 41 39c0 1.313.375 2.344 1.313 3.188.843.937 1.874 1.312 3.187 1.312zm7.5-9.469V25.5H39.5v6.844c1.688-1.5 3.75-2.344 6-2.344 1.5 0 3 .375 4.313 1.125A9.502 9.502 0 0 1 53 34.031zM24.5 23.25c0 .188-.094.375-.281.563-.188.187-.282.187-.469.187H1.25c-.188 0-.375 0-.563-.188C.5 23.625.5 23.438.5 23.25v-1.5c0-.188 0-.281.188-.469.187-.187.375-.281.562-.281h22.5c.188 0 .281.094.469.281.187.188.281.282.281.469v1.5zM26.75 18H4.25c-.188 0-.375 0-.563-.188-.187-.187-.187-.375-.187-.562v-1.5c0-.188 0-.281.188-.469.187-.187.374-.281.562-.281h22.5c.188 0 .281.094.469.281.187.188.281.281.281.469v1.5c0 .188-.094.375-.281.563-.188.187-.282.187-.469.187z"/></symbol><symbol viewBox="0 0 36 28" id="shopping-basket" xmlns="http://www.w3.org/2000/svg"><path d="M35.25 10c.188 0 .375.125.5.25s.25.313.25.5v.5c0 .25-.125.438-.25.563a.71.71 0 0 1-.5.187h-1l-1.875 13.438c-.125.75-.5 1.312-1.063 1.812-.562.5-1.187.75-1.937.75H6.625c-.75 0-1.438-.25-2-.75a2.93 2.93 0 0 1-1-1.813L1.75 12h-1c-.25 0-.438-.063-.563-.188C.064 11.688 0 11.5 0 11.25v-.5a.71.71 0 0 1 .188-.5A.792.792 0 0 1 .75 10h4.813L14.25.312c.188-.187.438-.312.688-.312.25 0 .5.125.75.313C15.874.5 16 .75 16 1c0 .25-.125.5-.25.688L8.25 10h19.5l-7.5-8.313C20.062 1.5 20 1.25 20 1c0-.25.063-.5.313-.688C20.5.126 20.75 0 21 0c.25 0 .5.125.75.313L30.438 10h4.812zm-4.875 15.125L32.188 12H3.811l1.813 13.125c0 .25.125.5.313.625.187.188.437.25.687.25h22.75c.25 0 .438-.063.625-.25.188-.125.313-.375.375-.625zM19 15.5c0-.25-.125-.5-.313-.688-.187-.187-.437-.312-.687-.312-.313 0-.563.125-.75.313-.188.187-.25.437-.25.687v7c0 .313.063.563.25.75.188.188.438.25.75.25.25 0 .5-.063.688-.25.187-.188.312-.438.312-.75v-7zm7 0c0-.25-.125-.5-.313-.688-.187-.187-.437-.312-.687-.312-.313 0-.563.125-.75.313-.188.187-.25.437-.25.687v7c0 .313.063.563.25.75.188.188.438.25.75.25.25 0 .5-.063.688-.25.187-.188.312-.438.312-.75v-7zm-14 0c0-.25-.125-.5-.313-.688-.187-.187-.437-.312-.687-.312-.313 0-.563.125-.75.313-.188.187-.25.437-.25.687v7c0 .313.063.563.25.75.188.188.438.25.75.25.25 0 .5-.063.688-.25.187-.188.312-.438.312-.75v-7z"/></symbol><symbol viewBox="0 0 30 23" id="sign-out" xmlns="http://www.w3.org/2000/svg"><path d="M2.813 0C1.993 0 1.347.293.82.82.234 1.406 0 2.05 0 2.813v16.875c0 .82.234 1.464.82 1.992.528.586 1.172.82 1.993.82h7.734a.665.665 0 0 0 .469-.176.743.743 0 0 0 .234-.527v-.469c0-.176-.117-.351-.234-.469-.118-.117-.293-.234-.47-.234H2.814c-.293 0-.528-.059-.704-.234-.175-.176-.234-.41-.234-.703V2.813c0-.235.059-.47.234-.645a.97.97 0 0 1 .704-.293h7.734a.665.665 0 0 0 .469-.176.743.743 0 0 0 .234-.527V.703c0-.176-.117-.351-.234-.469-.118-.117-.293-.234-.47-.234H2.814zM19.16 1.113a.665.665 0 0 1 .469-.175c.176 0 .351.058.527.175l9.668 9.61a.945.945 0 0 1 .176.527c0 .234-.059.352-.176.469l-9.668 9.668a.665.665 0 0 1-.468.175c-.235 0-.41-.058-.528-.234l-.41-.41c-.176-.117-.234-.234-.234-.469 0-.176.058-.351.234-.527l7.734-7.676H10.078c-.234 0-.41-.059-.527-.176-.117-.117-.176-.293-.176-.527v-.586c0-.176.059-.352.176-.469a.743.743 0 0 1 .527-.234h16.406L18.75 2.578c-.176-.117-.234-.293-.234-.527 0-.176.058-.352.234-.469l.41-.469z"/></symbol><symbol viewBox="0 0 16 16" id="times-circle" xmlns="http://www.w3.org/2000/svg"><path d="M7.89.25c1.375 0 2.687.375 3.875 1.063a7.59 7.59 0 0 1 2.812 2.812A7.685 7.685 0 0 1 15.64 8c0 1.406-.375 2.688-1.063 3.875-.687 1.188-1.625 2.156-2.812 2.844A7.656 7.656 0 0 1 7.89 15.75a7.573 7.573 0 0 1-3.875-1.031 7.758 7.758 0 0 1-2.844-2.844A7.572 7.572 0 0 1 .14 8c0-1.375.343-2.688 1.03-3.875C1.859 2.937 2.828 2 4.016 1.312 5.202.625 6.483.25 7.89.25zm0 14.5c1.218 0 2.343-.281 3.375-.906 1.03-.594 1.843-1.406 2.468-2.469A6.66 6.66 0 0 0 14.64 8a6.66 6.66 0 0 0-.907-3.375 7.18 7.18 0 0 0-2.468-2.469c-1.063-.594-2.188-.906-3.407-.906a6.66 6.66 0 0 0-3.375.906 6.835 6.835 0 0 0-2.437 2.469C1.42 5.688 1.14 6.813 1.14 8.031c0 1.219.28 2.344.906 3.375a6.383 6.383 0 0 0 2.469 2.438c1.03.625 2.156.906 3.375.906zm2.968-8.906c.063-.063.094-.157.094-.282a.355.355 0 0 0-.094-.25l-.28-.28a.355.355 0 0 0-.25-.095c-.126 0-.22.032-.282.094L7.89 7.188 5.733 5.03a.504.504 0 0 0-.28-.093c-.126 0-.188.03-.25.093l-.282.282a.355.355 0 0 0-.094.25c0 .125.031.218.094.28L7.108 8l-2.187 2.156a.504.504 0 0 0-.094.281c0 .126.031.188.094.25l.281.282c.063.062.125.094.25.094a.505.505 0 0 0 .281-.094L7.89 8.78l2.156 2.188c.062.062.156.094.281.094a.355.355 0 0 0 .25-.094l.281-.281c.063-.063.094-.126.094-.25a.504.504 0 0 0-.094-.282L8.702 8l2.156-2.156z"/></symbol><symbol viewBox="0 0 31 32" id="user-circle" xmlns="http://www.w3.org/2000/svg"><path d="M15.5.5c2.75 0 5.375.75 7.75 2.125a15.18 15.18 0 0 1 5.625 5.625C30.25 10.625 31 13.25 31 16c0 2.813-.75 5.375-2.125 7.75s-3.25 4.313-5.625 5.688-5 2.062-7.75 2.062c-2.813 0-5.375-.688-7.75-2.063a15.514 15.514 0 0 1-5.688-5.687C.688 21.375 0 18.812 0 16c0-2.75.688-5.375 2.063-7.75C3.437 5.875 5.374 4 7.75 2.625 10.125 1.25 12.688.5 15.5.5zm8 26.375V26c0-1.063-.438-2-1.188-2.813C21.5 22.438 20.563 22 19.5 22c-.188 0-.5.063-.938.188-1.062.375-2.062.5-3.062.5s-2.063-.125-3.063-.5c-.5-.125-.812-.188-.937-.188-1.125 0-2.063.438-2.813 1.188C7.875 24 7.5 24.938 7.5 26v.875c2.375 1.75 5 2.625 8 2.625 2.938 0 5.625-.875 8-2.625zm1.938-1.75c1.125-1.188 2-2.563 2.625-4.188C28.688 19.375 29 17.75 29 16a13.32 13.32 0 0 0-1.813-6.75 14.36 14.36 0 0 0-4.937-4.938A13.32 13.32 0 0 0 15.5 2.5c-2.5 0-4.75.625-6.813 1.813C6.626 5.563 5 7.188 3.814 9.25 2.563 11.313 2 13.563 2 16c0 1.75.313 3.375.938 4.938.624 1.625 1.5 3 2.624 4.187.25-1.438.875-2.625 2-3.625S10 20 11.5 20c.375 0 .875.125 1.5.313.875.25 1.688.375 2.5.375.75 0 1.625-.125 2.5-.375.625-.188 1.125-.313 1.5-.313 1.5 0 2.75.5 3.875 1.5s1.813 2.188 2.063 3.625zM15.5 7.5c1.5 0 2.75.563 3.875 1.625C20.438 10.25 21 11.5 21 13s-.563 2.813-1.625 3.875C18.25 18 17 18.5 15.5 18.5s-2.813-.5-3.875-1.625C10.5 15.812 10 14.5 10 13s.5-2.75 1.625-3.875C12.688 8.062 14 7.5 15.5 7.5zm0 9c.938 0 1.75-.313 2.438-1C18.625 14.812 19 14 19 13c0-.938-.375-1.75-1.063-2.438-.687-.687-1.5-1.062-2.437-1.062-1 0-1.813.375-2.5 1.063-.688.687-1 1.5-1 2.437 0 1 .313 1.813 1 2.5.688.688 1.5 1 2.5 1z"/></symbol><symbol viewBox="0 0 49 42" id="wallet" xmlns="http://www.w3.org/2000/svg"><path d="M42.5 7.5c1.688 0 3.094.656 4.219 1.781 1.125 1.125 1.781 2.531 1.781 4.219V36a6.019 6.019 0 0 1-1.781 4.313C45.594 41.437 44.187 42 42.5 42h-33c-2.531 0-4.688-.844-6.375-2.625C1.344 37.687.5 35.531.5 33V9c0-2.438.844-4.594 2.625-6.375C4.813.937 6.969 0 9.5 0h27c1.688 0 3.094.656 4.219 1.781C41.844 2.906 42.5 4.313 42.5 6v1.5zM44 36V13.5c0-.375-.188-.75-.469-1.031-.281-.281-.656-.469-1.031-.469H11c-.469 0-.844-.094-1.125-.375S9.5 10.969 9.5 10.5c0-.375.094-.75.375-1.031A1.552 1.552 0 0 1 11 9h27V6c0-.375-.188-.75-.469-1.031-.281-.282-.656-.469-1.031-.469h-27c-1.313 0-2.344.469-3.188 1.313C5.375 6.75 5 7.78 5 9v24c0 1.313.375 2.344 1.313 3.188.843.937 1.875 1.312 3.187 1.312h33c.375 0 .75-.094 1.031-.375.282-.281.469-.656.469-1.125zm-7.5-15c.75 0 1.5.375 2.063.938.562.562.937 1.312.937 2.062 0 .844-.375 1.594-.938 2.156A2.908 2.908 0 0 1 36.5 27c-.844 0-1.594-.281-2.156-.844-.563-.562-.844-1.312-.844-2.156 0-.75.281-1.5.844-2.063.562-.562 1.312-.937 2.156-.937z"/></symbol></svg>